<svg width="55" height="35" viewBox="0 0 55 35" fill="none" xmlns="http://www.w3.org/2000/svg">
<path d="M51.1498 14.8534L49.7255 9.15626C50.1149 9.07355 50.4071 8.72808 50.4071 8.31418V7.39562C50.4071 5.40122 48.7845 3.77872 46.7902 3.77872H40.3028V1.88401C40.3028 0.902608 39.5044 0.104248 38.523 0.104248H5.45402C4.47262 0.104248 3.67426 0.902608 3.67426 1.88401V17.4999C3.67426 17.9755 4.05979 18.3611 4.53546 18.3611C5.01102 18.3611 5.39666 17.9756 5.39666 17.4999V1.88401C5.39666 1.85232 5.42233 1.82665 5.45402 1.82665H38.5229C38.5546 1.82665 38.5802 1.85232 38.5802 1.88401V17.5001C38.5802 17.9757 38.9658 18.3614 39.4414 18.3614C39.917 18.3614 40.3026 17.9758 40.3026 17.5001V16.5239H50.4614C50.4623 16.5239 50.4629 16.5241 50.4637 16.5241C50.4645 16.5241 50.4653 16.524 50.466 16.524C51.7161 16.5249 52.7775 17.3454 53.1421 18.476H50.4643C49.9888 18.476 49.6031 18.8615 49.6031 19.3372V21.1743C49.6031 22.6622 50.8136 23.8726 52.3015 23.8726H53.2775V27.6617H51.0257C50.286 25.5258 48.2556 23.9874 45.8714 23.9874C43.4872 23.9874 41.4567 25.5258 40.7171 27.6617H40.3024V21.1742C40.3024 20.6986 39.9169 20.313 39.4412 20.313C38.9657 20.313 38.58 20.6985 38.58 21.1742V27.6615H20.7128C19.9731 25.5256 17.9427 23.9871 15.5584 23.9871C13.1742 23.9871 11.1437 25.5256 10.4041 27.6615H5.45402C5.42233 27.6615 5.39666 27.6358 5.39666 27.6041V25.7095H9.12839C9.60394 25.7095 9.98959 25.324 9.98959 24.8483C9.98959 24.3727 9.60405 23.9871 9.12839 23.9871H0.861201C0.385645 23.9871 0 24.3727 0 24.8483C0 25.324 0.385537 25.7095 0.861201 25.7095H3.67437V27.6041C3.67437 28.5856 4.47272 29.3839 5.45413 29.3839H10.1059C10.1057 29.403 10.1044 29.422 10.1044 29.4413C10.1044 32.4487 12.5512 34.8953 15.5584 34.8953C18.5657 34.8953 21.0125 32.4487 21.0125 29.4413C21.0125 29.4219 21.0112 29.403 21.011 29.3839H40.4189C40.4187 29.403 40.4174 29.422 40.4174 29.4413C40.4174 32.4487 42.8641 34.8953 45.8714 34.8953C48.8787 34.8953 51.3254 32.4487 51.3254 29.4413C51.3254 29.4219 51.3241 29.403 51.3239 29.3839H54.1387C54.6142 29.3839 54.9999 28.9984 54.9999 28.5227V19.337C55 17.0691 53.3267 15.1848 51.1498 14.8534ZM40.3028 5.50102H46.7902C47.8349 5.50102 48.6848 6.35094 48.6848 7.39562V7.45298H40.3028V5.50102ZM40.3028 14.8016V9.17527H47.9549L49.3615 14.8016H40.3028ZM15.5584 33.1732C13.5008 33.1732 11.8267 31.4993 11.8267 29.4415C11.8267 27.3837 13.5008 25.7098 15.5584 25.7098C17.6161 25.7098 19.2902 27.3837 19.2902 29.4415C19.2902 31.4993 17.6161 33.1732 15.5584 33.1732ZM45.8716 33.1732C43.8139 33.1732 42.1399 31.4993 42.1399 29.4415C42.1399 27.3837 43.8139 25.7098 45.8716 25.7098C47.9293 25.7098 49.6033 27.3837 49.6033 29.4415C49.6033 31.4993 47.9293 33.1732 45.8716 33.1732ZM53.2777 22.1502H52.3017C51.7635 22.1502 51.3256 21.7124 51.3256 21.1742V20.1982H53.2776V22.1502H53.2777Z" fill="#005AAB"/>
</svg>
